<svg width="550" height="338" viewBox="0 0 550 338" fill="none" xmlns="http://www.w3.org/2000/svg">
<rect x="4" width="542" height="330" rx="35" fill="#1354DC"/>
<mask id="mask0" style="mask-type:alpha" maskUnits="userSpaceOnUse" x="4" y="0" width="542" height="330">
<rect x="4" width="542" height="330" fill="#1354DC"/>
</mask>
<g mask="url(#mask0)">
<path d="M-31.4956 328.475V382.432C-29.1973 341.187 4.68196 329.275 21.3343 328.475H-31.4956Z" fill="#CEDBFD"/>
<path d="M1.71055 327.401L5.19422 273.727C6.18019 315.888 38.699 329.376 54.7553 330.844L1.71055 327.401Z" fill="#CEDBFD"/>
<ellipse cx="85.6702" cy="276.836" rx="13.407" ry="13.4492" stroke="#CEDBFD" stroke-width="9.32905"/>
<ellipse cx="85.6703" cy="276.836" rx="26.4947" ry="26.5782" stroke="#CEDBFD" stroke-width="9.32905"/>
<ellipse cx="85.6703" cy="276.836" rx="40.5401" ry="40.6679" stroke="#CEDBFD" stroke-width="9.32905"/>
<ellipse cx="85.6703" cy="276.836" rx="52.6703" ry="52.8362" stroke="#CEDBFD" stroke-width="9.32905"/>
<path d="M76.2666 127.837L91.4293 102.7L106.592 127.837H76.2666Z" fill="#FD7B7E"/>
<path d="M437.13 187.324L437.643 236.152L383.238 236.732C388.461 195.583 420.129 188.114 437.13 187.324Z" fill="#CEDBFD"/>
<path d="M481.061 -21.9286L427.275 -21.3555C468.413 -19.4882 480.645 14.3682 481.618 31.0629L481.061 -21.9286Z" fill="#CEDBFD"/>
<path d="M482.227 88.8611L481.659 34.9089C485.805 77.0066 519.144 88.0407 535.215 88.2965L482.227 88.8611Z" fill="#CEDBFD"/>
<path d="M545.607 329.119L492.459 329.685C530.228 326.849 542.25 298.253 545.044 275.647L545.607 329.119Z" fill="#CEDBFD"/>
<path d="M336.336 -1.46232L321.947 24.1287L306.024 -0.529207L336.336 -1.46232Z" fill="#FD7B7E"/>
<ellipse rx="13.1286" ry="13.0882" transform="matrix(0.0105228 0.999945 -0.999943 0.0106545 288.709 238.444)" fill="#FD7B7E"/>
<mask id="mask1" style="mask-type:alpha" maskUnits="userSpaceOnUse" x="-6" y="-1" width="113" height="58">
<rect width="111.409" height="55.3906" transform="matrix(-0.999943 0.0106915 -0.0104865 -0.999945 106.574 55.3867)" fill="#C4C4C4"/>
</mask>
<g mask="url(#mask1)">
<path d="M208.516 -1.48041L7.30348 -196.711" stroke="#CEDBFD" stroke-width="9.32905"/>
<path d="M113.081 97.4991L-88.1316 -97.7311" stroke="#CEDBFD" stroke-width="9.32905"/>
<path d="M198.972 8.41754L-2.24 -186.813" stroke="#CEDBFD" stroke-width="9.32905"/>
<path d="M103.537 107.397L-97.675 -87.8332" stroke="#CEDBFD" stroke-width="9.32905"/>
<path d="M189.429 18.3155L-11.7834 -176.915" stroke="#CEDBFD" stroke-width="9.32905"/>
<path d="M93.9939 117.295L-107.218 -77.9352" stroke="#CEDBFD" stroke-width="9.32905"/>
<path d="M179.885 28.2134L-21.3271 -167.017" stroke="#CEDBFD" stroke-width="9.32905"/>
<path d="M84.4502 127.193L-116.762 -68.0373" stroke="#CEDBFD" stroke-width="9.32905"/>
<path d="M170.342 38.1114L-30.8706 -157.119" stroke="#CEDBFD" stroke-width="9.32905"/>
<path d="M74.9067 137.091L-126.306 -58.1393" stroke="#CEDBFD" stroke-width="9.32905"/>
<path d="M160.798 48.0093L-40.414 -147.221" stroke="#CEDBFD" stroke-width="9.32905"/>
<path d="M65.3633 146.989L-135.849 -48.2414" stroke="#CEDBFD" stroke-width="9.32905"/>
<path d="M151.255 57.9073L-49.9575 -137.323" stroke="#CEDBFD" stroke-width="9.32905"/>
<path d="M55.8198 156.887L-145.393 -38.3434" stroke="#CEDBFD" stroke-width="9.32905"/>
<path d="M141.711 67.8052L-59.5012 -127.425" stroke="#CEDBFD" stroke-width="9.32905"/>
<path d="M46.2764 166.785L-154.936 -28.4454" stroke="#CEDBFD" stroke-width="9.32905"/>
<path d="M132.168 77.7032L-69.0447 -117.527" stroke="#CEDBFD" stroke-width="9.32905"/>
<path d="M36.7327 176.683L-164.48 -18.5475" stroke="#CEDBFD" stroke-width="9.32905"/>
<path d="M122.624 87.6012L-78.5881 -107.629" stroke="#CEDBFD" stroke-width="9.32905"/>
<path d="M27.1892 186.581L-174.023 -8.64951" stroke="#CEDBFD" stroke-width="9.32905"/>
</g>
<mask id="mask2" style="mask-type:alpha" maskUnits="userSpaceOnUse" x="370" y="-78" width="57" height="114">
<rect width="111.753" height="55.2311" transform="matrix(0.0104821 0.999945 -0.999943 0.0106961 425.257 -77.057)" fill="#C4C4C4"/>
</mask>
<g mask="url(#mask2)">
<path d="M361.638 -182.448L560.473 15.218" stroke="#CEDBFD" stroke-width="9.32905"/>
<path d="M265.013 -84.6381L463.848 113.028" stroke="#CEDBFD" stroke-width="9.32905"/>
<path d="M351.976 -172.667L550.811 24.999" stroke="#CEDBFD" stroke-width="9.32905"/>
<path d="M255.35 -74.8571L454.185 122.809" stroke="#CEDBFD" stroke-width="9.32905"/>
<path d="M342.313 -162.886L541.148 34.78" stroke="#CEDBFD" stroke-width="9.32905"/>
<path d="M245.688 -65.076L444.522 132.59" stroke="#CEDBFD" stroke-width="9.32905"/>
<path d="M332.651 -153.105L531.485 44.5611" stroke="#CEDBFD" stroke-width="9.32905"/>
<path d="M236.025 -55.295L434.86 142.371" stroke="#CEDBFD" stroke-width="9.32905"/>
<path d="M322.988 -143.324L521.823 54.3421" stroke="#CEDBFD" stroke-width="9.32905"/>
<path d="M226.362 -45.514L425.197 152.152" stroke="#CEDBFD" stroke-width="9.32905"/>
<path d="M313.326 -133.543L512.16 64.1231" stroke="#CEDBFD" stroke-width="9.32905"/>
<path d="M216.7 -35.733L415.535 161.933" stroke="#CEDBFD" stroke-width="9.32905"/>
<path d="M303.663 -123.762L502.498 73.9041" stroke="#CEDBFD" stroke-width="9.32905"/>
<path d="M207.037 -25.952L405.872 171.714" stroke="#CEDBFD" stroke-width="9.32905"/>
<path d="M294 -113.981L492.835 83.6851" stroke="#CEDBFD" stroke-width="9.32905"/>
<path d="M197.375 -16.171L396.209 181.495" stroke="#CEDBFD" stroke-width="9.32905"/>
<path d="M284.338 -104.2L483.173 93.4661" stroke="#CEDBFD" stroke-width="9.32905"/>
<path d="M187.712 -6.38995L386.547 191.276" stroke="#CEDBFD" stroke-width="9.32905"/>
<path d="M274.675 -94.4191L473.51 103.247" stroke="#CEDBFD" stroke-width="9.32905"/>
<path d="M178.05 3.39105L376.884 201.057" stroke="#CEDBFD" stroke-width="9.32905"/>
</g>
<ellipse rx="13.4487" ry="13.4074" transform="matrix(0.0105228 0.999945 -0.999943 0.0106545 537.396 143.676)" stroke="#CEDBFD" stroke-width="9.32905"/>
<ellipse rx="26.5773" ry="26.4956" transform="matrix(0.0105228 0.999945 -0.999943 0.0106545 537.396 143.676)" stroke="#CEDBFD" stroke-width="9.32905"/>
<ellipse rx="40.6665" ry="40.5415" transform="matrix(0.0105228 0.999945 -0.999943 0.0106545 537.396 143.676)" stroke="#CEDBFD" stroke-width="9.32905"/>
<ellipse rx="52.8344" ry="52.672" transform="matrix(0.0105228 0.999945 -0.999943 0.0106545 537.396 143.676)" stroke="#CEDBFD" stroke-width="9.32905"/>
<path d="M528.244 17.6007L553.462 32.5428L528.564 48.019L528.244 17.6007Z" fill="#FD7B7E"/>
</g>
<path d="M234.359 171.87C234.991 171.87 235.554 171.811 236.07 171.682C236.585 171.554 237.031 171.366 237.417 171.108C237.792 170.862 238.12 170.557 238.402 170.206C238.683 169.854 238.906 169.456 239.081 168.987C239.257 168.518 239.386 168.014 239.468 167.475C239.55 166.936 239.597 166.35 239.597 165.706V154.655H236.21V165.764C236.21 167.745 235.519 168.729 234.136 168.729C233.679 168.729 233.222 168.6 232.765 168.319C232.308 168.038 231.921 167.686 231.605 167.264L229.683 169.643C230.245 170.37 230.937 170.932 231.781 171.307C232.613 171.682 233.468 171.87 234.359 171.87ZM249.392 159.987V165.671C249.392 166.761 249.134 167.604 248.642 168.19C248.138 168.788 247.517 169.081 246.79 169.081C246.04 169.081 245.501 168.87 245.173 168.448C244.845 168.026 244.693 167.276 244.693 166.221V159.987H241.552V167.042C241.552 167.921 241.646 168.671 241.857 169.304C242.068 169.936 242.361 170.44 242.759 170.815C243.158 171.19 243.603 171.471 244.118 171.647C244.622 171.823 245.208 171.905 245.865 171.905C246.533 171.905 247.165 171.776 247.763 171.495C248.361 171.214 248.888 170.815 249.345 170.276H249.392V171.706H252.533V159.987H249.392ZM261.273 159.788C259.773 159.788 258.589 160.304 257.722 161.335H257.675V159.987H254.535V176.452H257.675V170.393H257.722C258.554 171.401 259.703 171.905 261.179 171.905C261.976 171.905 262.726 171.764 263.417 171.471C264.109 171.19 264.706 170.78 265.199 170.264C265.691 169.749 266.089 169.104 266.371 168.354C266.652 167.604 266.792 166.772 266.792 165.882C266.792 165.179 266.699 164.522 266.523 163.889C266.335 163.257 266.078 162.694 265.749 162.202C265.421 161.71 265.023 161.276 264.578 160.913C264.121 160.55 263.605 160.268 263.042 160.081C262.48 159.893 261.882 159.788 261.273 159.788ZM260.605 169.093C260.031 169.093 259.515 168.964 259.046 168.706C258.578 168.448 258.214 168.061 257.945 167.569C257.675 167.077 257.546 166.526 257.546 165.893C257.546 165.436 257.617 165.003 257.769 164.593C257.921 164.194 258.132 163.843 258.402 163.55C258.66 163.268 258.988 163.034 259.363 162.87C259.738 162.706 260.16 162.612 260.605 162.612C261.46 162.612 262.175 162.917 262.749 163.514C263.312 164.124 263.605 164.909 263.605 165.893C263.605 166.843 263.324 167.616 262.761 168.202C262.199 168.8 261.484 169.093 260.605 169.093ZM269.978 158.335C270.505 158.335 270.962 158.147 271.349 157.772C271.724 157.397 271.923 156.952 271.923 156.413C271.923 155.897 271.724 155.44 271.349 155.065C270.962 154.69 270.505 154.503 269.978 154.503C269.439 154.503 268.97 154.69 268.595 155.065C268.22 155.44 268.033 155.897 268.033 156.413C268.033 156.764 268.115 157.093 268.291 157.386C268.455 157.679 268.689 157.913 268.994 158.077C269.298 158.253 269.626 158.335 269.978 158.335ZM268.408 171.706H271.548V159.987H268.408V171.706ZM277.371 171.905C278.086 171.905 278.671 171.846 279.128 171.718C279.574 171.6 280.031 171.413 280.476 171.167L279.668 168.659C279.128 168.94 278.636 169.069 278.191 169.069C277.816 169.069 277.558 168.952 277.394 168.706C277.23 168.471 277.16 168.085 277.16 167.569V162.589H280.347V159.987H277.16V155.815L274.019 156.155V159.987H272.636V162.589H274.019V168.003C274.019 169.292 274.312 170.264 274.91 170.921C275.507 171.577 276.328 171.905 277.371 171.905ZM289.439 159.987V161.311H289.392C288.513 160.304 287.365 159.788 285.935 159.788C285.162 159.788 284.423 159.94 283.744 160.245C283.064 160.55 282.478 160.971 281.986 161.499C281.494 162.038 281.119 162.682 280.838 163.432C280.556 164.194 280.416 165.014 280.416 165.882C280.416 166.772 280.556 167.604 280.838 168.354C281.119 169.104 281.506 169.749 281.998 170.264C282.49 170.78 283.088 171.19 283.779 171.471C284.47 171.764 285.22 171.905 286.029 171.905C287.529 171.905 288.689 171.366 289.533 170.288H289.591V171.706H292.58V159.987H289.439ZM286.603 169.093C285.713 169.093 284.998 168.8 284.435 168.202C283.873 167.616 283.603 166.843 283.603 165.893C283.603 164.909 283.884 164.124 284.459 163.514C285.033 162.917 285.748 162.612 286.615 162.612C287.459 162.612 288.162 162.929 288.724 163.55C289.287 164.182 289.568 164.956 289.568 165.893C289.568 166.843 289.275 167.616 288.713 168.202C288.138 168.8 287.435 169.093 286.603 169.093Z" fill="white"/>
</svg>
