<svg width="552" height="353" viewBox="0 0 552 353" fill="none" xmlns="http://www.w3.org/2000/svg">
<rect width="552" height="353" rx="36" fill="white"/>
<path d="M132.15 250.097L120.877 271.12H120.775L109.426 250.097H102.062V287.04H109.324V264.087H109.4L118.414 280.032H123.162L132.176 264.087H132.252V287.04H139.514V250.097H132.15ZM150.239 287.04H174.944V280.515H157.45V271.958H170.602V265.509H157.45V256.647H173.852V250.097H150.239V287.04ZM207.86 250.097V275.056H207.759L191.331 250.097H184.044V287.04H191.331V262.563H191.432L207.682 287.04H215.173V250.097H207.86ZM225.898 287.04H238.263C241.183 287.04 243.849 286.608 246.236 285.694C248.622 284.806 250.603 283.562 252.228 281.937C253.853 280.312 255.097 278.382 255.96 276.097C256.823 273.837 257.28 271.349 257.28 268.632C257.28 265.94 256.823 263.427 255.909 261.142C254.995 258.856 253.726 256.901 252.075 255.276C250.425 253.651 248.394 252.382 246.007 251.468C243.62 250.554 240.98 250.097 238.111 250.097H225.898V287.04ZM233.109 280.515V256.647H238.263C240.446 256.647 242.402 257.181 244.154 258.196C245.88 259.212 247.251 260.634 248.216 262.462C249.181 264.29 249.689 266.347 249.689 268.632C249.689 270.308 249.384 271.882 248.825 273.329C248.267 274.802 247.454 276.046 246.439 277.112C245.423 278.179 244.154 278.991 242.681 279.601C241.183 280.21 239.558 280.515 237.806 280.515H233.109ZM266.457 287.04H291.162V280.515H273.668V271.958H286.82V265.509H273.668V256.647H290.07V250.097H266.457V287.04ZM327.668 287.472C328.913 287.472 330.131 287.345 331.35 287.091C332.543 286.837 333.711 286.405 334.854 285.796C335.996 285.187 337.012 284.476 337.875 283.612C338.739 282.749 339.424 281.683 339.957 280.388C340.465 279.093 340.745 277.671 340.745 276.097C340.745 274.573 340.491 273.253 340.034 272.085C339.272 270.257 337.723 268.708 335.438 267.438C334.422 266.905 332.391 266.042 329.319 264.823C328.354 264.468 327.567 264.163 327.008 263.909C326.45 263.655 325.866 263.376 325.307 263.071C324.748 262.767 324.317 262.462 324.038 262.157C323.733 261.853 323.504 261.522 323.352 261.142C323.174 260.786 323.098 260.354 323.098 259.897C323.098 258.755 323.53 257.841 324.342 257.181C325.155 256.521 326.221 256.19 327.541 256.19C329.928 256.19 332.62 257.409 335.59 259.821L339.805 254.312C335.971 251.163 331.832 249.614 327.364 249.665C325.18 249.716 323.174 250.198 321.371 251.112C319.543 252.026 318.121 253.296 317.08 254.896C316.014 256.521 315.506 258.298 315.506 260.228C315.506 261.192 315.608 262.106 315.836 262.97C316.065 263.833 316.37 264.569 316.725 265.229C317.08 265.89 317.563 266.499 318.147 267.083C318.731 267.667 319.315 268.175 319.924 268.581C320.508 268.987 321.219 269.419 322.032 269.825C322.844 270.231 323.58 270.587 324.291 270.841C324.977 271.12 325.764 271.425 326.678 271.729C327.668 272.085 328.481 272.364 329.09 272.618C329.7 272.872 330.284 273.151 330.842 273.456C331.401 273.761 331.832 274.091 332.137 274.396C332.442 274.726 332.67 275.106 332.848 275.513C333 275.944 333.102 276.427 333.102 276.96C333.102 277.747 332.899 278.433 332.518 278.991C332.112 279.575 331.528 280.032 330.715 280.362C329.903 280.718 328.938 280.87 327.795 280.87C327.034 280.87 326.272 280.794 325.51 280.591C324.723 280.413 323.936 280.134 323.149 279.753C322.362 279.397 321.575 278.915 320.788 278.306C320 277.722 319.264 277.036 318.604 276.249L314.211 281.657C316.09 283.612 318.198 285.06 320.508 286.024C322.819 286.989 325.205 287.472 327.668 287.472ZM363.962 287.472C367.085 287.472 369.776 286.837 372.036 285.542C374.296 284.272 376.022 282.444 377.19 280.083C378.358 277.747 378.968 274.954 378.968 271.755V250.097H371.655V271.272C371.655 274.167 370.944 276.452 369.522 278.128C368.1 279.804 366.247 280.616 363.962 280.616C362.387 280.616 361.016 280.21 359.848 279.397C358.68 278.585 357.817 277.468 357.259 276.071C356.675 274.675 356.395 273.075 356.395 271.272V250.097H349.057V271.755C349.057 274.243 349.413 276.478 350.124 278.458C350.835 280.438 351.85 282.089 353.171 283.409C354.466 284.729 356.04 285.72 357.868 286.431C359.696 287.142 361.727 287.472 363.962 287.472ZM409.116 250.097L401.677 263.579H401.575L394.06 250.097H385.681L397.894 270.815V287.04H405.282V270.815L417.571 250.097H409.116ZM444.496 287.04H452.138L438.402 250.097H431.343L417.658 287.04H425.3L427.814 279.651H441.982L444.496 287.04ZM429.921 273.405L434.847 258.907H434.898L439.849 273.405H429.921Z" fill="black"/>
<path d="M325.925 94.8156C313.54 94.8156 304.498 102.085 301.498 114.248C298.378 126.964 295.207 139.688 292.147 152.43C291.736 154.158 291.093 154.712 289.345 154.694C280.774 154.608 272.246 154.556 263.701 154.694C261.421 154.694 260.598 153.934 260.067 151.816C256.93 139.187 253.716 126.583 250.502 113.963C247.442 101.861 238.409 94.8329 226.092 94.8156C218.047 94.8156 210.002 94.8156 201.957 94.8156H199C203.071 99.8898 206.714 104.48 210.425 109.079C214.513 114.233 220.388 117.631 226.864 118.587C230.189 119.149 233.583 118.994 236.626 117.204C235.503 112.649 233.455 109.77 228.346 109.597C224.421 109.476 221.035 107.289 218.276 103.892C220.967 103.892 223.658 103.892 226.341 103.892C234.594 103.953 240.131 108.292 242.171 116.357C245.377 128.978 248.616 141.581 251.668 154.245C252.057 156.082 251.944 157.991 251.342 159.769C249.208 166.079 246.714 172.268 244.485 178.561C240.945 188.589 247.631 198.063 258.156 198.089C269.855 198.089 281.562 197.743 293.244 198.192C304.035 198.581 311.415 188.277 307.249 177.723C304.858 171.672 302.638 165.552 300.487 159.406C300.06 158.171 299.989 156.841 300.281 155.567C303.409 142.428 306.641 129.289 309.855 116.167C310.712 112.286 312.973 108.868 316.197 106.58C321.639 102.742 327.733 104.1 333.93 103.987C331.813 106.918 327.185 109.338 323.216 109.796C318.16 110.384 316.574 111.905 315.451 117.438C316.26 117.78 317.091 118.069 317.937 118.302C327.022 120.117 334.41 116.712 340.547 110.298C343.872 106.84 346.649 102.812 349.675 99.06C350.686 97.8066 351.706 96.5359 353 94.9107C343.598 94.807 334.744 94.7983 325.925 94.8156ZM295.301 189.038H257.59C256.811 189.056 256.038 188.897 255.327 188.574C254.617 188.251 253.987 187.771 253.485 187.171C251.77 185.131 252.027 182.952 252.996 180.627C253.519 179.391 257.847 163.944 263.238 163.944H289.268C293.844 164.393 296.776 173.548 297.521 176.167C297.521 176.167 299.15 180.42 299.767 182.589C299.934 183.149 299.998 183.735 299.955 184.318C300.093 187.033 299.004 189.064 295.259 189.064L295.301 189.038Z" fill="#A50C00"/>
<path d="M294.469 48.4824L288.47 51.8364C288.145 52.0305 287.877 52.3079 287.693 52.6405C287.51 52.9731 287.417 53.3489 287.424 53.7295V68.5458C287.424 74.0349 283.439 78.5039 278.519 78.5039H274.774C269.862 78.5039 265.877 74.0435 265.877 68.5544V53.7295C265.884 53.3489 265.791 52.9731 265.608 52.6405C265.424 52.3079 265.156 52.0305 264.831 51.8364L258.832 48.4824C258.718 48.4275 258.592 48.4038 258.466 48.4135C258.34 48.4233 258.219 48.4662 258.115 48.538C258.011 48.6098 257.927 48.7079 257.873 48.8226C257.818 48.9372 257.794 49.0644 257.803 49.1913V68.5458C257.803 79.0226 265.406 87.5631 274.782 87.5631H278.519C287.887 87.5631 295.489 79.0658 295.489 68.5458V49.1913C295.498 49.0655 295.474 48.9397 295.419 48.8262C295.365 48.7126 295.282 48.6153 295.179 48.5438C295.076 48.4723 294.957 48.429 294.832 48.4183C294.708 48.4075 294.583 48.4296 294.469 48.4824V48.4824Z" fill="#A50C00"/>
<path d="M318.913 80.5609C315.974 90.2252 309.657 96.0168 300.658 97.3048C299.886 97.4172 299.149 97.5382 298.429 97.6679C294.999 98.3355 291.638 99.3283 288.393 100.633V100.633L287.013 101.229C284.954 102.13 283.007 103.27 281.211 104.627H281.159L280.936 104.799C280.875 104.859 280.809 104.914 280.739 104.964L280.353 105.301C278.819 106.631 277.433 108.126 276.222 109.761C276.19 109.817 276.153 109.869 276.111 109.917C272.683 101.93 263.426 100.201 263.066 100.132C260.164 99.0721 257.18 98.2568 254.144 97.6938V97.6938C253.373 97.5555 252.576 97.4259 251.744 97.3048C242.736 96.0168 236.428 90.2252 233.48 80.5609C232.186 76.1551 231.633 71.5621 231.843 66.9722L237.242 68.5713C237.995 68.8262 238.656 69.3007 239.141 69.9347C239.626 70.5687 239.914 71.3337 239.968 72.1328C240.174 74.0864 240.582 76.013 241.185 77.8812C243.148 84.0964 246.944 87.5282 252.773 88.3667C261.712 89.6461 268.637 92.248 273.343 96.086C274.371 96.9142 275.318 97.8406 276.171 98.8522V98.8522C277.021 97.8385 277.969 96.912 278.999 96.086C283.722 92.248 290.647 89.6461 299.569 88.3667C305.397 87.5023 309.186 84.0964 311.148 77.8812C311.749 76.012 312.16 74.0859 312.374 72.1328C312.428 71.3337 312.715 70.5687 313.201 69.9347C313.686 69.3007 314.347 68.8262 315.099 68.5713L320.49 66.9722C320.724 71.5589 320.191 76.1526 318.913 80.5609V80.5609Z" fill="#A50C00"/>
</svg>
