<svg width="551" height="328" viewBox="0 0 551 328" fill="none" xmlns="http://www.w3.org/2000/svg">
<rect x="550.57" y="2.81848" width="325.181" height="550.57" rx="35" transform="rotate(90 550.57 2.81848)" fill="#03A438"/>
<path d="M0 35C0 15.67 15.67 0 35 0H516C535.33 0 551 15.67 551 35V175.497H0V35Z" fill="white"/>
<path d="M171.379 114.453C171.835 114.345 172.327 114.273 172.855 114.237C173.383 114.201 173.905 114.183 174.421 114.183C174.973 114.183 175.531 114.237 176.095 114.345C176.671 114.453 177.193 114.651 177.661 114.939C178.129 115.227 178.507 115.623 178.795 116.127C179.095 116.631 179.245 117.273 179.245 118.053C179.245 118.821 179.107 119.469 178.831 119.997C178.555 120.525 178.189 120.957 177.733 121.293C177.277 121.617 176.755 121.851 176.167 121.995C175.579 122.139 174.973 122.211 174.349 122.211C174.289 122.211 174.187 122.211 174.043 122.211C173.911 122.211 173.767 122.211 173.611 122.211C173.467 122.199 173.323 122.187 173.179 122.175C173.035 122.163 172.933 122.151 172.873 122.139V126.927H171.379V114.453ZM174.457 115.479C174.145 115.479 173.845 115.485 173.557 115.497C173.269 115.509 173.041 115.539 172.873 115.587V120.807C172.933 120.831 173.029 120.849 173.161 120.861C173.293 120.861 173.431 120.867 173.575 120.879C173.719 120.879 173.857 120.879 173.989 120.879C174.121 120.879 174.217 120.879 174.277 120.879C174.685 120.879 175.087 120.843 175.483 120.771C175.891 120.687 176.257 120.543 176.581 120.339C176.905 120.135 177.163 119.847 177.355 119.475C177.559 119.103 177.661 118.629 177.661 118.053C177.661 117.561 177.565 117.153 177.373 116.829C177.193 116.493 176.947 116.229 176.635 116.037C176.335 115.833 175.993 115.689 175.609 115.605C175.225 115.521 174.841 115.479 174.457 115.479ZM180.153 118.593C180.609 118.317 181.137 118.113 181.737 117.981C182.349 117.849 182.985 117.783 183.645 117.783C184.269 117.783 184.767 117.867 185.139 118.035C185.523 118.203 185.811 118.425 186.003 118.701C186.207 118.965 186.339 119.259 186.399 119.583C186.471 119.907 186.507 120.231 186.507 120.555C186.507 121.275 186.489 121.977 186.453 122.661C186.417 123.345 186.399 123.993 186.399 124.605C186.399 125.049 186.417 125.469 186.453 125.865C186.489 126.261 186.555 126.627 186.651 126.963H185.589L185.211 125.703H185.121C185.013 125.871 184.875 126.039 184.707 126.207C184.551 126.363 184.359 126.507 184.131 126.639C183.903 126.759 183.639 126.861 183.339 126.945C183.039 127.029 182.697 127.071 182.313 127.071C181.929 127.071 181.569 127.011 181.233 126.891C180.909 126.771 180.627 126.603 180.387 126.387C180.147 126.159 179.955 125.889 179.811 125.577C179.679 125.265 179.613 124.911 179.613 124.515C179.613 123.987 179.721 123.549 179.937 123.201C180.153 122.841 180.453 122.559 180.837 122.355C181.233 122.139 181.701 121.989 182.241 121.905C182.793 121.809 183.399 121.761 184.059 121.761C184.227 121.761 184.389 121.761 184.545 121.761C184.713 121.761 184.881 121.773 185.049 121.797C185.085 121.437 185.103 121.113 185.103 120.825C185.103 120.165 184.971 119.703 184.707 119.439C184.443 119.175 183.963 119.043 183.267 119.043C183.063 119.043 182.841 119.061 182.601 119.097C182.373 119.121 182.133 119.163 181.881 119.223C181.641 119.271 181.407 119.337 181.179 119.421C180.963 119.493 180.771 119.577 180.603 119.673L180.153 118.593ZM182.709 125.811C183.045 125.811 183.345 125.769 183.609 125.685C183.873 125.589 184.101 125.475 184.293 125.343C184.485 125.199 184.641 125.043 184.761 124.875C184.893 124.707 184.989 124.545 185.049 124.389V122.895C184.881 122.883 184.707 122.877 184.527 122.877C184.359 122.865 184.191 122.859 184.023 122.859C183.651 122.859 183.285 122.883 182.925 122.931C182.577 122.967 182.265 123.045 181.989 123.165C181.725 123.273 181.509 123.429 181.341 123.633C181.185 123.825 181.107 124.071 181.107 124.371C181.107 124.791 181.257 125.139 181.557 125.415C181.857 125.679 182.241 125.811 182.709 125.811ZM187.678 117.927H189.082V116.145L190.522 115.731V117.927H192.97V119.187H190.522V124.173C190.522 124.797 190.6 125.241 190.756 125.505C190.912 125.757 191.176 125.883 191.548 125.883C191.86 125.883 192.124 125.853 192.34 125.793C192.556 125.721 192.796 125.631 193.06 125.523L193.384 126.621C193.06 126.777 192.706 126.903 192.322 126.999C191.938 127.095 191.524 127.143 191.08 127.143C190.348 127.143 189.832 126.939 189.532 126.531C189.232 126.111 189.082 125.415 189.082 124.443V119.187H187.678V117.927ZM194.912 117.927H196.352V126.927H194.912V117.927ZM194.606 115.191C194.606 114.915 194.696 114.681 194.876 114.489C195.068 114.285 195.308 114.183 195.596 114.183C195.884 114.183 196.13 114.285 196.334 114.489C196.538 114.681 196.64 114.915 196.64 115.191C196.64 115.467 196.538 115.695 196.334 115.875C196.13 116.055 195.884 116.145 195.596 116.145C195.308 116.145 195.068 116.055 194.876 115.875C194.696 115.695 194.606 115.467 194.606 115.191ZM205.632 126.207C205.272 126.495 204.816 126.723 204.264 126.891C203.724 127.059 203.148 127.143 202.536 127.143C201.852 127.143 201.258 127.035 200.754 126.819C200.25 126.591 199.836 126.273 199.512 125.865C199.188 125.445 198.948 124.947 198.792 124.371C198.636 123.795 198.558 123.147 198.558 122.427C198.558 120.891 198.9 119.721 199.584 118.917C200.268 118.113 201.246 117.711 202.518 117.711C202.926 117.711 203.334 117.759 203.742 117.855C204.15 117.939 204.516 118.107 204.84 118.359C205.164 118.611 205.428 118.971 205.632 119.439C205.836 119.895 205.938 120.501 205.938 121.257C205.938 121.653 205.902 122.091 205.83 122.571H200.052C200.052 123.099 200.106 123.567 200.214 123.975C200.322 124.383 200.49 124.731 200.718 125.019C200.946 125.295 201.24 125.511 201.6 125.667C201.972 125.811 202.422 125.883 202.95 125.883C203.358 125.883 203.766 125.811 204.174 125.667C204.582 125.523 204.888 125.355 205.092 125.163L205.632 126.207ZM202.536 118.971C201.828 118.971 201.258 119.157 200.826 119.529C200.406 119.901 200.154 120.537 200.07 121.437H204.534C204.534 120.525 204.36 119.889 204.012 119.529C203.664 119.157 203.172 118.971 202.536 118.971ZM213.621 126.927V121.797C213.621 120.861 213.483 120.159 213.207 119.691C212.943 119.211 212.451 118.971 211.731 118.971C211.095 118.971 210.567 119.145 210.147 119.493C209.739 119.829 209.451 120.255 209.283 120.771V126.927H207.843V117.927H208.851L209.121 119.025H209.193C209.481 118.641 209.865 118.329 210.345 118.089C210.837 117.837 211.419 117.711 212.091 117.711C212.583 117.711 213.015 117.771 213.387 117.891C213.759 117.999 214.065 118.197 214.305 118.485C214.557 118.773 214.743 119.163 214.863 119.655C214.995 120.135 215.061 120.747 215.061 121.491V126.927H213.621ZM216.139 117.927H217.543V116.145L218.983 115.731V117.927H221.431V119.187H218.983V124.173C218.983 124.797 219.061 125.241 219.217 125.505C219.373 125.757 219.637 125.883 220.009 125.883C220.321 125.883 220.585 125.853 220.801 125.793C221.017 125.721 221.257 125.631 221.521 125.523L221.845 126.621C221.521 126.777 221.167 126.903 220.783 126.999C220.399 127.095 219.985 127.143 219.541 127.143C218.809 127.143 218.293 126.939 217.993 126.531C217.693 126.111 217.543 125.415 217.543 124.443V119.187H216.139V117.927ZM237.333 118.467L237.513 116.577H237.423L236.739 118.305L233.463 123.993H233.013L229.539 118.287L228.891 116.577H228.801L229.053 118.449V126.927H227.649V114.327H228.765L232.707 120.771L233.301 122.175H233.337L233.895 120.735L237.657 114.327H238.827V126.927H237.333V118.467ZM241.24 118.593C241.696 118.317 242.224 118.113 242.824 117.981C243.436 117.849 244.072 117.783 244.732 117.783C245.356 117.783 245.854 117.867 246.226 118.035C246.61 118.203 246.898 118.425 247.09 118.701C247.294 118.965 247.426 119.259 247.486 119.583C247.558 119.907 247.594 120.231 247.594 120.555C247.594 121.275 247.576 121.977 247.54 122.661C247.504 123.345 247.486 123.993 247.486 124.605C247.486 125.049 247.504 125.469 247.54 125.865C247.576 126.261 247.642 126.627 247.738 126.963H246.676L246.298 125.703H246.208C246.1 125.871 245.962 126.039 245.794 126.207C245.638 126.363 245.446 126.507 245.218 126.639C244.99 126.759 244.726 126.861 244.426 126.945C244.126 127.029 243.784 127.071 243.4 127.071C243.016 127.071 242.656 127.011 242.32 126.891C241.996 126.771 241.714 126.603 241.474 126.387C241.234 126.159 241.042 125.889 240.898 125.577C240.766 125.265 240.7 124.911 240.7 124.515C240.7 123.987 240.808 123.549 241.024 123.201C241.24 122.841 241.54 122.559 241.924 122.355C242.32 122.139 242.788 121.989 243.328 121.905C243.88 121.809 244.486 121.761 245.146 121.761C245.314 121.761 245.476 121.761 245.632 121.761C245.8 121.761 245.968 121.773 246.136 121.797C246.172 121.437 246.19 121.113 246.19 120.825C246.19 120.165 246.058 119.703 245.794 119.439C245.53 119.175 245.05 119.043 244.354 119.043C244.15 119.043 243.928 119.061 243.688 119.097C243.46 119.121 243.22 119.163 242.968 119.223C242.728 119.271 242.494 119.337 242.266 119.421C242.05 119.493 241.858 119.577 241.69 119.673L241.24 118.593ZM243.796 125.811C244.132 125.811 244.432 125.769 244.696 125.685C244.96 125.589 245.188 125.475 245.38 125.343C245.572 125.199 245.728 125.043 245.848 124.875C245.98 124.707 246.076 124.545 246.136 124.389V122.895C245.968 122.883 245.794 122.877 245.614 122.877C245.446 122.865 245.278 122.859 245.11 122.859C244.738 122.859 244.372 122.883 244.012 122.931C243.664 122.967 243.352 123.045 243.076 123.165C242.812 123.273 242.596 123.429 242.428 123.633C242.272 123.825 242.194 124.071 242.194 124.371C242.194 124.791 242.344 125.139 242.644 125.415C242.944 125.679 243.328 125.811 243.796 125.811ZM255.731 126.927V121.797C255.731 120.861 255.593 120.159 255.317 119.691C255.053 119.211 254.561 118.971 253.841 118.971C253.205 118.971 252.677 119.145 252.257 119.493C251.849 119.829 251.561 120.255 251.393 120.771V126.927H249.953V117.927H250.961L251.231 119.025H251.303C251.591 118.641 251.975 118.329 252.455 118.089C252.947 117.837 253.529 117.711 254.201 117.711C254.693 117.711 255.125 117.771 255.497 117.891C255.869 117.999 256.175 118.197 256.415 118.485C256.667 118.773 256.853 119.163 256.973 119.655C257.105 120.135 257.171 120.747 257.171 121.491V126.927H255.731ZM259.293 118.593C259.749 118.317 260.277 118.113 260.877 117.981C261.489 117.849 262.125 117.783 262.785 117.783C263.409 117.783 263.907 117.867 264.279 118.035C264.663 118.203 264.951 118.425 265.143 118.701C265.347 118.965 265.479 119.259 265.539 119.583C265.611 119.907 265.647 120.231 265.647 120.555C265.647 121.275 265.629 121.977 265.593 122.661C265.557 123.345 265.539 123.993 265.539 124.605C265.539 125.049 265.557 125.469 265.593 125.865C265.629 126.261 265.695 126.627 265.791 126.963H264.729L264.351 125.703H264.261C264.153 125.871 264.015 126.039 263.847 126.207C263.691 126.363 263.499 126.507 263.271 126.639C263.043 126.759 262.779 126.861 262.479 126.945C262.179 127.029 261.837 127.071 261.453 127.071C261.069 127.071 260.709 127.011 260.373 126.891C260.049 126.771 259.767 126.603 259.527 126.387C259.287 126.159 259.095 125.889 258.951 125.577C258.819 125.265 258.753 124.911 258.753 124.515C258.753 123.987 258.861 123.549 259.077 123.201C259.293 122.841 259.593 122.559 259.977 122.355C260.373 122.139 260.841 121.989 261.381 121.905C261.933 121.809 262.539 121.761 263.199 121.761C263.367 121.761 263.529 121.761 263.685 121.761C263.853 121.761 264.021 121.773 264.189 121.797C264.225 121.437 264.243 121.113 264.243 120.825C264.243 120.165 264.111 119.703 263.847 119.439C263.583 119.175 263.103 119.043 262.407 119.043C262.203 119.043 261.981 119.061 261.741 119.097C261.513 119.121 261.273 119.163 261.021 119.223C260.781 119.271 260.547 119.337 260.319 119.421C260.103 119.493 259.911 119.577 259.743 119.673L259.293 118.593ZM261.849 125.811C262.185 125.811 262.485 125.769 262.749 125.685C263.013 125.589 263.241 125.475 263.433 125.343C263.625 125.199 263.781 125.043 263.901 124.875C264.033 124.707 264.129 124.545 264.189 124.389V122.895C264.021 122.883 263.847 122.877 263.667 122.877C263.499 122.865 263.331 122.859 263.163 122.859C262.791 122.859 262.425 122.883 262.065 122.931C261.717 122.967 261.405 123.045 261.129 123.165C260.865 123.273 260.649 123.429 260.481 123.633C260.325 123.825 260.247 124.071 260.247 124.371C260.247 124.791 260.397 125.139 260.697 125.415C260.997 125.679 261.381 125.811 261.849 125.811ZM274.901 127.341C274.901 128.505 274.589 129.363 273.965 129.915C273.353 130.467 272.441 130.743 271.229 130.743C270.509 130.743 269.927 130.695 269.483 130.599C269.051 130.515 268.679 130.401 268.367 130.257L268.745 129.033C269.021 129.141 269.327 129.243 269.663 129.339C269.999 129.435 270.437 129.483 270.977 129.483C271.481 129.483 271.889 129.435 272.201 129.339C272.525 129.255 272.783 129.105 272.975 128.889C273.167 128.685 273.299 128.415 273.371 128.079C273.443 127.755 273.479 127.365 273.479 126.909V126.045H273.407C273.167 126.393 272.861 126.663 272.489 126.855C272.117 127.035 271.631 127.125 271.031 127.125C269.819 127.125 268.925 126.747 268.349 125.991C267.785 125.235 267.503 124.059 267.503 122.463C267.503 120.927 267.869 119.763 268.601 118.971C269.333 118.167 270.413 117.765 271.841 117.765C272.525 117.765 273.107 117.819 273.587 117.927C274.079 118.035 274.517 118.161 274.901 118.305V127.341ZM271.283 125.865C271.895 125.865 272.375 125.715 272.723 125.415C273.071 125.103 273.317 124.623 273.461 123.975V119.367C272.981 119.139 272.369 119.025 271.625 119.025C270.809 119.025 270.167 119.301 269.699 119.853C269.231 120.405 268.997 121.269 268.997 122.445C268.997 122.949 269.039 123.411 269.123 123.831C269.207 124.251 269.339 124.611 269.519 124.911C269.699 125.211 269.933 125.445 270.221 125.613C270.509 125.781 270.863 125.865 271.283 125.865ZM283.885 126.207C283.525 126.495 283.069 126.723 282.517 126.891C281.977 127.059 281.401 127.143 280.789 127.143C280.105 127.143 279.511 127.035 279.007 126.819C278.503 126.591 278.089 126.273 277.765 125.865C277.441 125.445 277.201 124.947 277.045 124.371C276.889 123.795 276.811 123.147 276.811 122.427C276.811 120.891 277.153 119.721 277.837 118.917C278.521 118.113 279.499 117.711 280.771 117.711C281.179 117.711 281.587 117.759 281.995 117.855C282.403 117.939 282.769 118.107 283.093 118.359C283.417 118.611 283.681 118.971 283.885 119.439C284.089 119.895 284.191 120.501 284.191 121.257C284.191 121.653 284.155 122.091 284.083 122.571H278.305C278.305 123.099 278.359 123.567 278.467 123.975C278.575 124.383 278.743 124.731 278.971 125.019C279.199 125.295 279.493 125.511 279.853 125.667C280.225 125.811 280.675 125.883 281.203 125.883C281.611 125.883 282.019 125.811 282.427 125.667C282.835 125.523 283.141 125.355 283.345 125.163L283.885 126.207ZM280.789 118.971C280.081 118.971 279.511 119.157 279.079 119.529C278.659 119.901 278.407 120.537 278.323 121.437H282.787C282.787 120.525 282.613 119.889 282.265 119.529C281.917 119.157 281.425 118.971 280.789 118.971ZM291.369 126.927V121.833C291.369 121.353 291.345 120.939 291.297 120.591C291.261 120.231 291.183 119.931 291.063 119.691C290.943 119.451 290.769 119.271 290.541 119.151C290.325 119.031 290.037 118.971 289.677 118.971C289.125 118.971 288.663 119.139 288.291 119.475C287.931 119.811 287.679 120.231 287.535 120.735V126.927H286.095V117.927H287.103L287.373 119.025H287.445C287.769 118.641 288.141 118.329 288.561 118.089C288.993 117.837 289.551 117.711 290.235 117.711C290.811 117.711 291.279 117.825 291.639 118.053C292.011 118.269 292.299 118.653 292.503 119.205C292.779 118.737 293.157 118.371 293.637 118.107C294.129 117.843 294.681 117.711 295.293 117.711C295.797 117.711 296.223 117.771 296.571 117.891C296.919 117.999 297.207 118.197 297.435 118.485C297.663 118.773 297.825 119.163 297.921 119.655C298.029 120.147 298.083 120.771 298.083 121.527V126.927H296.643V121.509C296.643 121.077 296.619 120.705 296.571 120.393C296.535 120.069 296.451 119.805 296.319 119.601C296.199 119.385 296.025 119.229 295.797 119.133C295.581 119.025 295.293 118.971 294.933 118.971C294.333 118.971 293.865 119.139 293.529 119.475C293.193 119.811 292.953 120.291 292.809 120.915V126.927H291.369ZM306.913 126.207C306.553 126.495 306.097 126.723 305.545 126.891C305.005 127.059 304.429 127.143 303.817 127.143C303.133 127.143 302.539 127.035 302.035 126.819C301.531 126.591 301.117 126.273 300.793 125.865C300.469 125.445 300.229 124.947 300.073 124.371C299.917 123.795 299.839 123.147 299.839 122.427C299.839 120.891 300.181 119.721 300.865 118.917C301.549 118.113 302.527 117.711 303.799 117.711C304.207 117.711 304.615 117.759 305.023 117.855C305.431 117.939 305.797 118.107 306.121 118.359C306.445 118.611 306.709 118.971 306.913 119.439C307.117 119.895 307.219 120.501 307.219 121.257C307.219 121.653 307.183 122.091 307.111 122.571H301.333C301.333 123.099 301.387 123.567 301.495 123.975C301.603 124.383 301.771 124.731 301.999 125.019C302.227 125.295 302.521 125.511 302.881 125.667C303.253 125.811 303.703 125.883 304.231 125.883C304.639 125.883 305.047 125.811 305.455 125.667C305.863 125.523 306.169 125.355 306.373 125.163L306.913 126.207ZM303.817 118.971C303.109 118.971 302.539 119.157 302.107 119.529C301.687 119.901 301.435 120.537 301.351 121.437H305.815C305.815 120.525 305.641 119.889 305.293 119.529C304.945 119.157 304.453 118.971 303.817 118.971ZM314.901 126.927V121.797C314.901 120.861 314.763 120.159 314.487 119.691C314.223 119.211 313.731 118.971 313.011 118.971C312.375 118.971 311.847 119.145 311.427 119.493C311.019 119.829 310.731 120.255 310.563 120.771V126.927H309.123V117.927H310.131L310.401 119.025H310.473C310.761 118.641 311.145 118.329 311.625 118.089C312.117 117.837 312.699 117.711 313.371 117.711C313.863 117.711 314.295 117.771 314.667 117.891C315.039 117.999 315.345 118.197 315.585 118.485C315.837 118.773 316.023 119.163 316.143 119.655C316.275 120.135 316.341 120.747 316.341 121.491V126.927H314.901ZM317.419 117.927H318.823V116.145L320.263 115.731V117.927H322.711V119.187H320.263V124.173C320.263 124.797 320.341 125.241 320.497 125.505C320.653 125.757 320.917 125.883 321.289 125.883C321.601 125.883 321.865 125.853 322.081 125.793C322.297 125.721 322.537 125.631 322.801 125.523L323.125 126.621C322.801 126.777 322.447 126.903 322.063 126.999C321.679 127.095 321.265 127.143 320.821 127.143C320.089 127.143 319.573 126.939 319.273 126.531C318.973 126.111 318.823 125.415 318.823 124.443V119.187H317.419V117.927ZM334.618 123.723C334.618 123.219 334.468 122.811 334.168 122.499C333.868 122.175 333.49 121.893 333.034 121.653C332.59 121.401 332.104 121.167 331.576 120.951C331.048 120.735 330.556 120.477 330.1 120.177C329.656 119.865 329.284 119.487 328.984 119.043C328.684 118.587 328.534 118.011 328.534 117.315C328.534 116.331 328.876 115.551 329.56 114.975C330.244 114.399 331.216 114.111 332.476 114.111C333.208 114.111 333.874 114.165 334.474 114.273C335.074 114.381 335.542 114.519 335.878 114.687L335.428 116.001C335.152 115.869 334.744 115.743 334.204 115.623C333.676 115.503 333.076 115.443 332.404 115.443C331.612 115.443 331.018 115.623 330.622 115.983C330.226 116.331 330.028 116.745 330.028 117.225C330.028 117.693 330.178 118.083 330.478 118.395C330.778 118.707 331.15 118.989 331.594 119.241C332.05 119.481 332.542 119.721 333.07 119.961C333.598 120.201 334.084 120.483 334.528 120.807C334.984 121.119 335.362 121.497 335.662 121.941C335.962 122.385 336.112 122.937 336.112 123.597C336.112 124.137 336.016 124.623 335.824 125.055C335.632 125.487 335.35 125.859 334.978 126.171C334.606 126.483 334.156 126.723 333.628 126.891C333.1 127.059 332.5 127.143 331.828 127.143C330.928 127.143 330.184 127.071 329.596 126.927C329.008 126.795 328.552 126.645 328.228 126.477L328.732 125.127C329.008 125.283 329.416 125.439 329.956 125.595C330.496 125.739 331.102 125.811 331.774 125.811C332.17 125.811 332.542 125.775 332.89 125.703C333.238 125.619 333.538 125.493 333.79 125.325C334.042 125.145 334.24 124.923 334.384 124.659C334.54 124.395 334.618 124.083 334.618 123.723ZM340.634 123.759L341.138 125.487H341.228L341.624 123.741L343.37 117.927H344.828L342.164 126.009C341.96 126.597 341.756 127.167 341.552 127.719C341.36 128.271 341.144 128.763 340.904 129.195C340.664 129.627 340.394 129.969 340.094 130.221C339.794 130.485 339.446 130.617 339.05 130.617C338.618 130.617 338.264 130.557 337.988 130.437L338.24 129.195C338.396 129.255 338.546 129.285 338.69 129.285C339.026 129.285 339.35 129.105 339.662 128.745C339.974 128.397 340.232 127.791 340.436 126.927L336.818 117.927H338.474L340.634 123.759ZM349.973 124.479C349.973 124.119 349.865 123.837 349.649 123.633C349.433 123.429 349.163 123.261 348.839 123.129C348.527 122.985 348.179 122.853 347.795 122.733C347.423 122.601 347.075 122.439 346.751 122.247C346.439 122.043 346.175 121.785 345.959 121.473C345.743 121.161 345.635 120.741 345.635 120.213C345.635 119.349 345.881 118.719 346.373 118.323C346.865 117.915 347.549 117.711 348.425 117.711C349.073 117.711 349.613 117.771 350.045 117.891C350.489 117.999 350.873 118.131 351.197 118.287L350.855 119.475C350.579 119.343 350.243 119.229 349.847 119.133C349.463 119.025 349.049 118.971 348.605 118.971C348.077 118.971 347.687 119.061 347.435 119.241C347.195 119.421 347.075 119.733 347.075 120.177C347.075 120.489 347.183 120.735 347.399 120.915C347.615 121.083 347.879 121.239 348.191 121.383C348.515 121.515 348.863 121.647 349.235 121.779C349.619 121.911 349.967 122.085 350.279 122.301C350.603 122.517 350.873 122.793 351.089 123.129C351.305 123.453 351.413 123.885 351.413 124.425C351.413 124.809 351.347 125.169 351.215 125.505C351.095 125.841 350.903 126.129 350.639 126.369C350.375 126.609 350.045 126.795 349.649 126.927C349.265 127.071 348.809 127.143 348.281 127.143C347.597 127.143 347.015 127.077 346.535 126.945C346.055 126.813 345.653 126.657 345.329 126.477L345.761 125.253C346.037 125.409 346.397 125.553 346.841 125.685C347.285 125.817 347.735 125.883 348.191 125.883C348.707 125.883 349.133 125.781 349.469 125.577C349.805 125.373 349.973 125.007 349.973 124.479ZM352.041 117.927H353.445V116.145L354.885 115.731V117.927H357.333V119.187H354.885V124.173C354.885 124.797 354.963 125.241 355.119 125.505C355.275 125.757 355.539 125.883 355.911 125.883C356.223 125.883 356.487 125.853 356.703 125.793C356.919 125.721 357.159 125.631 357.423 125.523L357.747 126.621C357.423 126.777 357.069 126.903 356.685 126.999C356.301 127.095 355.887 127.143 355.443 127.143C354.711 127.143 354.195 126.939 353.895 126.531C353.595 126.111 353.445 125.415 353.445 124.443V119.187H352.041V117.927ZM365.345 126.207C364.985 126.495 364.529 126.723 363.977 126.891C363.437 127.059 362.861 127.143 362.249 127.143C361.565 127.143 360.971 127.035 360.467 126.819C359.963 126.591 359.549 126.273 359.225 125.865C358.901 125.445 358.661 124.947 358.505 124.371C358.349 123.795 358.271 123.147 358.271 122.427C358.271 120.891 358.613 119.721 359.297 118.917C359.981 118.113 360.959 117.711 362.231 117.711C362.639 117.711 363.047 117.759 363.455 117.855C363.863 117.939 364.229 118.107 364.553 118.359C364.877 118.611 365.141 118.971 365.345 119.439C365.549 119.895 365.651 120.501 365.651 121.257C365.651 121.653 365.615 122.091 365.543 122.571H359.765C359.765 123.099 359.819 123.567 359.927 123.975C360.035 124.383 360.203 124.731 360.431 125.019C360.659 125.295 360.953 125.511 361.313 125.667C361.685 125.811 362.135 125.883 362.663 125.883C363.071 125.883 363.479 125.811 363.887 125.667C364.295 125.523 364.601 125.355 364.805 125.163L365.345 126.207ZM362.249 118.971C361.541 118.971 360.971 119.157 360.539 119.529C360.119 119.901 359.867 120.537 359.783 121.437H364.247C364.247 120.525 364.073 119.889 363.725 119.529C363.377 119.157 362.885 118.971 362.249 118.971ZM372.83 126.927V121.833C372.83 121.353 372.806 120.939 372.758 120.591C372.722 120.231 372.644 119.931 372.524 119.691C372.404 119.451 372.23 119.271 372.002 119.151C371.786 119.031 371.498 118.971 371.138 118.971C370.586 118.971 370.124 119.139 369.752 119.475C369.392 119.811 369.14 120.231 368.996 120.735V126.927H367.556V117.927H368.564L368.834 119.025H368.906C369.23 118.641 369.602 118.329 370.022 118.089C370.454 117.837 371.012 117.711 371.696 117.711C372.272 117.711 372.74 117.825 373.1 118.053C373.472 118.269 373.76 118.653 373.964 119.205C374.24 118.737 374.618 118.371 375.098 118.107C375.59 117.843 376.142 117.711 376.754 117.711C377.258 117.711 377.684 117.771 378.032 117.891C378.38 117.999 378.668 118.197 378.896 118.485C379.124 118.773 379.286 119.163 379.382 119.655C379.49 120.147 379.544 120.771 379.544 121.527V126.927H378.104V121.509C378.104 121.077 378.08 120.705 378.032 120.393C377.996 120.069 377.912 119.805 377.78 119.601C377.66 119.385 377.486 119.229 377.258 119.133C377.042 119.025 376.754 118.971 376.394 118.971C375.794 118.971 375.326 119.139 374.99 119.475C374.654 119.811 374.414 120.291 374.27 120.915V126.927H372.83Z" fill="#595959"/>
<path d="M229.385 69.2103C229.385 67.0023 228.889 65.2423 227.897 63.9303C226.905 62.5863 225.433 61.9143 223.481 61.9143C222.841 61.9143 222.249 61.9463 221.705 62.0103C221.161 62.0423 220.713 62.0903 220.361 62.1543V75.0663C220.809 75.3543 221.385 75.5943 222.089 75.7863C222.825 75.9783 223.561 76.0743 224.297 76.0743C227.689 76.0743 229.385 73.7863 229.385 69.2103ZM236.681 69.0183C236.681 70.9703 236.441 72.7463 235.961 74.3463C235.481 75.9463 234.777 77.3223 233.849 78.4743C232.921 79.6263 231.769 80.5223 230.393 81.1623C229.017 81.8023 227.433 82.1223 225.641 82.1223C224.649 82.1223 223.721 82.0263 222.857 81.8343C221.993 81.6423 221.161 81.3703 220.361 81.0183V90.5223H213.209V57.2583C213.849 57.0663 214.585 56.8903 215.417 56.7303C216.249 56.5383 217.113 56.3783 218.009 56.2503C218.937 56.1223 219.865 56.0263 220.793 55.9623C221.753 55.8663 222.665 55.8183 223.529 55.8183C225.609 55.8183 227.465 56.1383 229.097 56.7783C230.729 57.3863 232.105 58.2663 233.225 59.4183C234.345 60.5383 235.193 61.9143 235.769 63.5463C236.377 65.1783 236.681 67.0023 236.681 69.0183ZM253.65 68.2503C253.65 65.9463 253.346 64.3143 252.738 63.3543C252.162 62.3943 251.154 61.9143 249.714 61.9143C249.266 61.9143 248.802 61.9463 248.322 62.0103C247.842 62.0423 247.378 62.0903 246.93 62.1543V81.6423H239.778V57.2583C240.386 57.0983 241.09 56.9383 241.89 56.7783C242.722 56.5863 243.586 56.4263 244.482 56.2983C245.41 56.1383 246.354 56.0263 247.314 55.9623C248.274 55.8663 249.218 55.8183 250.146 55.8183C251.97 55.8183 253.442 56.0583 254.562 56.5383C255.714 56.9863 256.658 57.5303 257.394 58.1703C258.418 57.4343 259.586 56.8583 260.898 56.4423C262.242 56.0263 263.474 55.8183 264.594 55.8183C266.61 55.8183 268.258 56.1063 269.538 56.6823C270.85 57.2263 271.89 58.0103 272.658 59.0343C273.426 60.0583 273.954 61.2743 274.242 62.6823C274.53 64.0903 274.674 65.6583 274.674 67.3863V81.6423H267.522V68.2503C267.522 65.9463 267.218 64.3143 266.61 63.3543C266.034 62.3943 265.026 61.9143 263.586 61.9143C263.202 61.9143 262.658 62.0103 261.954 62.2023C261.282 62.3943 260.722 62.6343 260.274 62.9223C260.498 63.6583 260.642 64.4423 260.706 65.2743C260.77 66.0743 260.802 66.9383 260.802 67.8663V81.6423H253.65V68.2503ZM286.016 76.5063C287.328 76.5063 288.256 76.3783 288.8 76.1223C289.344 75.8663 289.616 75.3703 289.616 74.6343C289.616 74.0583 289.264 73.5623 288.56 73.1463C287.856 72.6983 286.784 72.2023 285.344 71.6583C284.224 71.2423 283.2 70.8103 282.272 70.3623C281.376 69.9143 280.608 69.3863 279.968 68.7783C279.328 68.1383 278.832 67.3863 278.48 66.5223C278.128 65.6583 277.952 64.6183 277.952 63.4023C277.952 61.0343 278.832 59.1623 280.592 57.7863C282.352 56.4103 284.768 55.7223 287.84 55.7223C289.376 55.7223 290.848 55.8663 292.256 56.1543C293.664 56.4103 294.784 56.6983 295.616 57.0183L294.368 62.5863C293.536 62.2983 292.624 62.0423 291.632 61.8183C290.672 61.5943 289.584 61.4823 288.368 61.4823C286.128 61.4823 285.008 62.1063 285.008 63.3543C285.008 63.6423 285.056 63.8983 285.152 64.1223C285.248 64.3463 285.44 64.5703 285.728 64.7943C286.016 64.9863 286.4 65.2103 286.88 65.4663C287.392 65.6903 288.032 65.9463 288.8 66.2343C290.368 66.8103 291.664 67.3863 292.688 67.9623C293.712 68.5063 294.512 69.1143 295.088 69.7863C295.696 70.4263 296.112 71.1463 296.336 71.9463C296.592 72.7463 296.72 73.6743 296.72 74.7303C296.72 77.2263 295.776 79.1143 293.888 80.3943C292.032 81.6743 289.392 82.3143 285.968 82.3143C283.728 82.3143 281.856 82.1223 280.352 81.7383C278.88 81.3543 277.856 81.0343 277.28 80.7783L278.48 74.9703C279.696 75.4503 280.944 75.8343 282.224 76.1223C283.504 76.3783 284.768 76.5063 286.016 76.5063Z" fill="#323232"/>
<rect x="186.797" y="92.9142" width="15.3316" height="45.3331" rx="7.66579" transform="rotate(-180 186.797 92.9142)" fill="#03A438"/>
<rect width="14.7838" height="47.0129" rx="7.39189" transform="matrix(0 -1 -1 0 203.013 77.6058)" fill="#FECBC5"/>
</svg>
