<svg width="120" height="78" viewBox="0 0 120 78" fill="none" xmlns="http://www.w3.org/2000/svg">
<rect x="2.06128" y="57" width="104.029" height="8.92711" transform="rotate(0.357099 2.06128 57)" fill="#9357FC"/>
<path d="M27.9024 54.7244L12.3347 54.6274L9.71228 62.0592L1.48044 62.0079L15.7801 22.9522L24.908 23.0091L38.7197 62.24L30.4319 62.1883L27.9024 54.7244ZM25.8135 48.4393L20.2595 32.0523L14.5017 48.3688L25.8135 48.4393ZM73.8463 31.4343L54.3539 77.0097L46.0101 76.9577L52.8263 61.5439L40.583 31.227L49.3748 31.2818L57.2476 53.0033L65.5025 31.3823L73.8463 31.4343ZM91.6517 63.0739C88.6651 63.0553 85.9813 62.3852 83.6001 61.0637C81.2192 59.7048 79.3457 57.8078 77.9795 55.3725C76.6506 52.9375 75.9961 50.1334 76.0159 46.9601C76.0356 43.7868 76.7437 40.9912 78.1402 38.5732C79.5739 36.1554 81.5082 34.3008 83.943 33.0093C86.378 31.6804 89.0888 31.0253 92.0754 31.0439C95.062 31.0625 97.7644 31.7514 100.183 33.1105C102.601 34.4322 104.493 36.3107 105.86 38.746C107.263 41.1814 107.955 43.9858 107.935 47.1591C107.915 50.3323 107.17 53.1277 105.699 55.5453C104.265 57.9631 102.312 59.8363 99.8398 61.1649C97.405 62.4564 94.6757 63.0927 91.6517 63.0739ZM91.6943 56.242C93.113 56.2509 94.4404 55.9231 95.6765 55.2588C96.9503 54.5574 97.9648 53.5184 98.72 52.1417C99.4753 50.7651 99.8591 49.0874 99.8714 47.1088C99.8898 44.1595 99.1199 41.896 97.5617 40.3183C96.041 38.7034 94.1608 37.889 91.9208 37.8751C89.6808 37.8611 87.7905 38.652 86.2499 40.2478C84.7468 41.8064 83.9861 44.0604 83.9677 47.0097C83.9493 49.959 84.6631 52.2408 86.1091 53.8552C87.5926 55.4324 89.4544 56.2281 91.6943 56.242Z" fill="white"/>
</svg>
